:SAMPLES-PER-SECOND 30
:FULLY-SPECIFIED
:DEGREES
418
root  44.5923 38.7271 12.2346 -4.24907 -32.7911 3.56787
RightUpLeg  -16.7952 -13.8204 6.98457
RightLeg  14.8058 -29.0614 0.0640584
RightFoot  -5.51123 0.973516 -19.5344
RightToes  -4.65663e-010 0 -3.6325e-017
Spine  4.26319 -1.55072 6.77885
Spine1  6.90915 -1.28841 -0.0487253
HEad  -7.6801 33.933 -12.4621
LeftShoulder1  8.15379 -11.6927 -46.8081
LeftArm  -18.3833 4.9625 -10.732
LeftForeArm  31.0815 -40.1593 -7.45399
LeftHand  -0.244104 0.0205437 5.32207
RightShoulder  5.92418 9.16713 40.5823
RightArm  -11.0338 -22.3489 29.8626
RightForeArm  14.7115 4.52206 4.80189
RightHand  -0.975572 2.27111 -14.9216
LeftUpLeg  15.8743 23.834 11.6493
LeftLeg  27.9177 4.06711 2.84548
LeftFoot  -1.09986 2.06387 -23.3701
LeftToes  -7.27628e-011 -1.6005e-012 -1.37987e-011
419
root  43.8522 38.6977 13.2649 -3.83746 -34.9501 2.33565
RightUpLeg  -15.3295 -14.3097 8.23745
RightLeg  17.2526 -26.4757 -0.734993
RightFoot  -7.92655 0.482963 -17.8185
RightToes  -4.65663e-010 0 -3.6325e-017
Spine  4.42303 -1.56034 8.54452
Spine1  6.85929 -0.995391 -0.0348551
HEad  -6.04177 27.6185 -10.2268
LeftShoulder1  8.25735 -11.715 -47.3444
LeftArm  -17.9487 9.10183 -13.1992
LeftForeArm  32.3044 -41.6327 -7.82513
LeftHand  -0.244104 0.0205437 5.32207
RightShoulder  5.87073 9.17968 40.1403
RightArm  -11.6113 -21.5418 31.5255
RightForeArm  13.8596 6.05797 4.97087
RightHand  -0.977752 2.23093 -15.0288
LeftUpLeg  9.21668 19.0633 10.6713
LeftLeg  39.6532 5.5746 5.2242
LeftFoot  9.40068 2.87059 -16.0447
LeftToes  -7.27628e-011 -1.6005e-012 -1.37987e-011
420
root  43.1439 38.5937 14.2056 -3.13177 -37.2322 0.967682
RightUpLeg  -13.9843 -12.694 9.15402
RightLeg  19.4557 -26.1672 -1.25837
RightFoot  -10.2033 0.0983674 -16.7887
RightToes  -4.65663e-010 0 -3.6325e-017
Spine  4.62687 -1.52085 10.843
Spine1  6.89776 -0.402174 -0.66572
HEad  -4.91033 20.7771 -7.93326
LeftShoulder1  8.37186 -11.7895 -47.7744
LeftArm  -16.8409 12.1891 -15.2686
LeftForeArm  32.0377 -40.9292 -7.63005
LeftHand  -0.244104 0.0205437 5.32207
RightShoulder  5.85672 9.11525 40.2592
RightArm  -11.0678 -20.308 32.72
RightForeArm  11.3829 8.93918 5.57664
RightHand  -1.02492 2.44175 -15.3296
LeftUpLeg  2.39831 14.8603 9.99391
LeftLeg  49.8568 3.90971 5.35829
LeftFoot  15.7502 1.97947 -8.44347
LeftToes  -7.27628e-011 -1.6005e-012 -1.37987e-011
421
root  42.372 38.6311 15.1552 -2.84546 -40.5554 0.499756
RightUpLeg  -12.0437 -10.4184 9.56423
RightLeg  20.236 -25.4126 -1.38917
RightFoot  -11.8583 -0.153434 -16.2329
RightToes  -4.65663e-010 0 -3.6325e-017
Spine  4.65314 -1.02165 12.453
Spine1  7.00136 0.640483 -1.86913
HEad  -4.27141 13.9367 -5.96091
LeftShoulder1  8.49442 -11.8435 -48.3097
LeftArm  -15.2772 14.4872 -16.9483
LeftForeArm  31.2299 -38.1131 -6.85996
LeftHand  -0.244104 0.0205437 5.32207
RightShoulder  5.90413 9.06684 40.7828
RightArm  -8.18878 -18.0246 33.3641
RightForeArm  9.60953 12.0467 6.04284
RightHand  -1.11159 2.99173 -15.5488
LeftUpLeg  -3.15708 12.1713 9.28499
LeftLeg  56.7926 2.58193 4.7926
LeftFoot  15.2765 1.19798 -5.45262
LeftToes  -7.27628e-011 -1.6005e-012 -1.37987e-011
422
root  41.5358 38.8094 16.0927 -3.43852 -44.9666 1.43793
RightUpLeg  -9.30135 -8.74722 9.06331
RightLeg  19.4498 -22.6585 -0.692099
RightFoot  -13.0858 -0.325377 -15.4994
RightToes  -4.65663e-010 0 -3.6325e-017
Spine  4.73491 -0.229715 12.7028
Spine1  6.92031 1.83635 -3.2472
HEad  -4.04185 7.76744 -4.21365
LeftShoulder1  8.57872 -11.8636 -48.7282
LeftArm  -13.4197 16.7353 -18.6453
LeftForeArm  29.6411 -33.5327 -5.73986
LeftHand  -0.244104 0.0205437 5.32207
RightShoulder  5.99841 9.17956 41.0901
RightArm  -3.73216 -14.713 34.2508
RightForeArm  9.24038 14.7403 5.96927
RightHand  -1.17791 3.41841 -15.6862
LeftUpLeg  -7.68552 10.7098 8.13535
LeftLeg  60.2347 2.76006 5.79083
LeftFoot  11.3104 1.01331 -5.41413
LeftToes  -7.27628e-011 -1.6005e-012 -1.37987e-011
423
root  40.6997 38.9875 16.9661 -4.46365 -49.7651 3.0743
RightUpLeg  -6.55467 -7.50953 8.03302
RightLeg  18.2281 -18.9913 0.42005
RightFoot  -14.0281 -0.444226 -14.8101
RightToes  -4.65663e-010 0 -3.6325e-017
Spine  5.05172 0.493047 12.5495
Spine1  6.40147 2.93004 -4.79759
HEad  -4.13954 2.5985 -2.57614
LeftShoulder1  8.61848 -11.9136 -48.7963
LeftArm  -10.7392 19.0992 -20.5336
LeftForeArm  26.2152 -27.6355 -4.51018
LeftHand  -0.244104 0.0205437 5.32207
RightShoulder  6.11419 9.42946 41.073
RightArm  1.28494 -11.2455 35.6431
RightForeArm  8.35739 17.6613 5.43024
RightHand  -1.1902 3.40717 -15.8656
LeftUpLeg  -11.958 9.34648 6.77036
LeftLeg  60.8112 3.81027 7.9168
LeftFoot  7.88669 0.708082 -4.43819
LeftToes  -7.27628e-011 -1.6005e-012 -1.37987e-011
424
root  39.8592 39.155 17.7898 -5.60672 -54.7224 4.88406
RightUpLeg  -4.05203 -6.51516 6.96489
RightLeg  16.9194 -15.0847 1.48775
RightFoot  -14.5306 -0.506498 -14.5862
RightToes  -4.65663e-010 0 -3.6325e-017
Spine  5.44982 1.21254 12.6822
Spine1  5.71742 4.02781 -6.66039
HEad  -4.66675 -1.61479 -1.2361
LeftShoulder1  8.69267 -12.0419 -48.8105
LeftArm  -7.70137 21.1638 -22.3101
LeftForeArm  22.2266 -21.1395 -3.78673
LeftHand  -0.244104 0.0205437 5.32207
RightShoulder  6.20441 9.64429 40.9918
RightArm  5.93117 -8.16986 36.9913
RightForeArm  6.12288 21.4684 4.80905
RightHand  -1.16016 3.14254 -15.9343
LeftUpLeg  -15.8632 8.04975 5.5849
LeftLeg  58.934 5.1689 9.71381
LeftFoot  5.4747 0.168903 -1.35233
LeftToes  -7.27628e-011 -1.6005e-012 -1.37987e-011
425
root  38.9875 39.3399 18.5839 -7.49992 -59.8858 7.34454
RightUpLeg  -1.42625 -6.04612 5.67333
RightLeg  15.4194 -10.4152 2.32309
RightFoot  -14.7837 -0.538602 -14.5242
RightToes  -4.65663e-010 0 -3.6325e-017
Spine  5.85887 2.00268 12.677
Spine1  5.38784 5.15887 -8.57179
HEad  -5.78521 -4.85728 -0.25752
LeftShoulder1  8.83995 -12.1876 -49.1784
LeftArm  -7.6775 22.8409 -23.6419
LeftForeArm  22.4829 -15.0061 -4.58458
LeftHand  -0.244104 0.0205437 5.32207
RightShoulder  6.25067 9.75596 40.9463
RightArm  8.36971 -5.13363 37.844
RightForeArm  5.40343 25.5918 5.14994
RightHand  -1.11483 2.88186 -15.7903
LeftUpLeg  -18.774 7.53984 4.68429
LeftLeg  54.564 6.55607 10.2647
LeftFoot  2.83266 -0.0838598 0.490194
LeftToes  -7.27628e-011 -1.6005e-012 -1.37987e-011
426
root  38.0892 39.4846 19.3532 -10.5153 -64.6794 10.7724
RightUpLeg  1.22582 -6.05497 3.98681
RightLeg  14.1064 -5.3331 2.84407
RightFoot  -15.2719 -0.589425 -14.1101
RightToes  -4.65663e-010 0 -3.6325e-017
Spine  6.32896 2.52949 12.1887
Spine1  5.29133 5.92193 -10.1228
HEad  -7.33001 -6.87824 0.54661
LeftShoulder1  9.00359 -12.2827 -49.7864
LeftArm  -8.85295 24.6191 -24.8934
LeftForeArm  25.0363 -10.4129 -5.21629
LeftHand  -0.244104 0.0205437 5.32207
RightShoulder  6.28157 9.83974 40.8858
RightArm  10.1276 -1.86736 38.5394
RightForeArm  6.09435 29.2438 6.02027
RightHand  -1.07591 2.68147 -15.6163
LeftUpLeg  -20.7079 7.63265 3.97942
LeftLeg  47.7419 7.36173 9.02382
LeftFoot  0.806255 0.0437977 -0.463006
LeftToes  -7.27628e-011 -1.6005e-012 -1.37987e-011
427
root  37.1599 39.5236 20.1056 -13.3626 -68.41 14.0315
RightUpLeg  3.37462 -6.24762 2.4317
RightLeg  13.3722 -0.995629 3.14899
RightFoot  -16.0543 -0.665952 -13.4828
RightToes  -4.65663e-010 0 -3.6325e-017
Spine  6.65916 2.56271 11.7201
Spine1  4.95212 6.03474 -11.2574
HEad  -8.88373 -7.73193 1.22449
LeftShoulder1  9.13518 -12.3814 -50.1982
LeftArm  -9.04643 26.8289 -26.4318
LeftForeArm  26.5998 -7.75859 -5.22847
LeftHand  -0.244104 0.0205437 5.32207
RightShoulder  6.2912 9.89223 40.7797
RightArm  12.0099 1.12684 39.4135
RightForeArm  7.16288 32.1891 6.69719
RightHand  -1.05498 2.51005 -15.6386
LeftUpLeg  -22.1306 7.62032 3.49969
LeftLeg  38.7538 6.30528 5.82134
LeftFoot  0.537494 0.21544 -2.09559
LeftToes  -7.27628e-011 -1.6005e-012 -1.37987e-011
428
root  36.168 39.4971 20.8424 -15.0005 -71.1854 16.1452
RightUpLeg  5.26626 -6.47136 1.27646
RightLeg  12.6742 2.34783 3.46497
RightFoot  -16.6673 -0.721951 -13.0379
RightToes  -4.65663e-010 0 -3.6325e-017
Spine  6.58539 2.38447 11.5711
Spine1  4.55188 5.8207 -12.1322
HEad  -10.1576 -8.0558 1.63785
LeftShoulder1  9.23701 -12.54 -50.2564
LeftArm  -9.02485 29.1646 -28.0974
LeftForeArm  26.9706 -6.50515 -5.15136
LeftHand  -0.244104 0.0205437 5.32207
RightShoulder  6.23347 9.81788 40.6182
RightArm  13.317 3.23646 40.2411
RightForeArm  8.24887 34.7355 7.31466
RightHand  -1.03102 2.26869 -15.7536
LeftUpLeg  -23.0805 8.24589 2.96682
LeftLeg  28.1209 2.55858 1.9853
LeftFoot  1.65671 0.411113 -3.67531
LeftToes  -7.27628e-011 -1.6005e-012 -1.37987e-011
429
root  35.1178 39.4671 21.5534 -16.9851 -73.5153 18.4599
RightUpLeg  7.55719 -6.82641 -0.0938412
RightLeg  11.5073 5.47766 3.78624
RightFoot  -17.0285 -0.739954 -12.5291
RightToes  -4.65663e-010 0 -3.6325e-017
Spine  6.38504 2.32508 11.1729
Spine1  4.55782 5.73318 -12.7653
HEad  -11.3017 -8.12353 1.74831
LeftShoulder1  9.30343 -12.6764 -50.1924
LeftArm  -9.3428 31.0866 -29.5049
LeftForeArm  26.7911 -6.13475 -5.08243
LeftHand  -0.244104 0.0205437 5.32207
RightShoulder  6.14096 9.6606 40.4829
RightArm  14.0191 4.4173 40.5608
RightForeArm  8.93091 37.1381 7.95751
RightHand  -0.973803 1.85488 -15.7137
LeftUpLeg  -23.1905 10.4129 2.01148
LeftLeg  16.8661 -0.53831 -0.482626
LeftFoot  3.39726 0.798839 -6.31665
LeftToes  -7.27628e-011 -1.6005e-012 -1.37987e-011
430
root  34.0158 39.401 22.2659 -20.5118 -75.3638 21.9654
RightUpLeg  10.1663 -7.48293 -2.06055
RightLeg  10.6434 8.67128 4.01786
RightFoot  -17.5882 -0.742133 -11.3982
RightToes  -4.65663e-010 0 -3.6325e-017
Spine  6.4129 2.26478 10.2795
Spine1  4.95406 5.69399 -13.0042
HEad  -12.3907 -8.15605 1.82975
LeftShoulder1  9.32768 -12.6983 -50.2549
LeftArm  -9.78016 32.2465 -30.2672
LeftForeArm  26.7077 -6.25843 -4.98196
LeftHand  -0.244104 0.0205437 5.32207
RightShoulder  6.11505 9.59373 40.5207
RightArm  14.3246 4.88465 40.211
RightForeArm  9.17796 39.0757 8.52736
RightHand  -0.91019 1.40936 -15.635
LeftUpLeg  -22.1635 9.45214 2.46219
LeftLeg  6.75071 5.69374 -2.9453
LeftFoot  4.3836 1.19109 -8.83162
LeftToes  -7.27628e-011 -1.6005e-012 -1.37987e-011
431
root  32.8182 39.2413 23.0233 -23.8436 -76.5988 24.9751
RightUpLeg  12.5101 -8.3126 -4.0834
RightLeg  11.2123 11.4998 4.20756
RightFoot  -18.2971 -0.716212 -9.72291
RightToes  -4.65663e-010 0 -3.6325e-017
Spine  6.4713 2.06885 9.58676
Spine1  5.44313 5.53287 -12.989
HEad  -13.3156 -8.33563 2.05696
LeftShoulder1  9.32392 -12.6643 -50.3391
LeftArm  -9.93248 32.5431 -30.2153
LeftForeArm  26.9829 -6.35821 -4.91512
LeftHand  -0.244104 0.0205437 5.32207
RightShoulder  6.16249 9.64221 40.6987
RightArm  14.2844 4.63275 39.4832
RightForeArm  8.95071 39.8805 8.79581
RightHand  -0.904468 1.27355 -15.8398
LeftUpLeg  -20.8652 5.09893 3.72428
LeftLeg  0.041512 17.4189 -6.3502
LeftFoot  3.56016 1.19688 -9.28837
LeftToes  -7.27628e-011 -1.6005e-012 -1.37987e-011
